<svg xmlns="http://www.w3.org/2000/svg" width="15" height="15" viewBox="0 0 15 15">
    <defs>
        <clipPath id="4lchzoqvxa">
            <path data-name="사각형 11967" style="fill:none" d="M0 0h15v15H0z"/>
        </clipPath>
    </defs>
    <g data-name="그룹 29855" style="clip-path:url(#4lchzoqvxa)">
        <path data-name="패스 15069" d="M7.5 0a7.5 7.5 0 0 0 0 15 .469.469 0 0 0 .469-.469v-1.875a.469.469 0 0 0-.469-.469A4.688 4.688 0 1 1 12.188 7.5a.469.469 0 0 0 .469.469h1.875A.469.469 0 0 0 15 7.5 7.509 7.509 0 0 0 7.5 0"/>
        <path data-name="패스 15070" d="M7.5 3.75a.469.469 0 0 0-.469.469v.938a.469.469 0 0 0 .469.469A1.875 1.875 0 1 1 5.625 7.5a.469.469 0 0 0-.469-.469h-.937a.469.469 0 0 0-.469.469A3.75 3.75 0 1 0 7.5 3.75"/>
    </g>
</svg>
