<svg xmlns="http://www.w3.org/2000/svg" width="26" height="26" viewBox="0 0 26 26">
    <defs>
        <clipPath id="lkg1ld0xua">
            <path data-name="사각형 11988" transform="translate(0 .211)" style="fill:#fdeae4" d="M0 0h26v26H0z"/>
        </clipPath>
    </defs>
    <g data-name="그룹 29933" transform="translate(0 -.211)" style="clip-path:url(#lkg1ld0xua)">
        <path data-name="패스 15080" d="M24.077 0H1.921A1.892 1.892 0 0 0 0 1.863v22.271A1.893 1.893 0 0 0 1.921 26h22.156A1.892 1.892 0 0 0 26 24.134V1.863A1.891 1.891 0 0 0 24.077 0M7.882 21.762H3.954V10.024h3.928zM5.918 8.421h-.026a2.034 2.034 0 1 1 .051-4.056 2.035 2.035 0 1 1-.025 4.056m16.123 13.341h-3.927v-6.28c0-1.578-.569-2.655-1.989-2.655a2.145 2.145 0 0 0-2.014 1.428 2.62 2.62 0 0 0-.131.951v6.556h-3.926s.051-10.637 0-11.738h3.926v1.664a3.9 3.9 0 0 1 3.538-1.94c2.584 0 4.522 1.677 4.522 5.284v6.73m-8.085-10.037.025-.037v.037z" transform="translate(0 .215)" style="fill:#fdeae4"/>
    </g>
</svg>
