<svg xmlns="http://www.w3.org/2000/svg" width="16.105" height="16.104" viewBox="0 0 16.105 16.104">
    <defs>
        <clipPath id="tupnog1wfa">
            <path data-name="사각형 11994" style="fill:none" d="M0 0h16.105v16.104H0z"/>
        </clipPath>
    </defs>
    <g data-name="그룹 29942" style="clip-path:url(#tupnog1wfa)">
        <path data-name="패스 15083" d="M15.56 2.436h-3.192V.568A.575.575 0 0 0 11.8 0H4.328a.575.575 0 0 0-.568.568v1.868H.568A.575.575 0 0 0 0 3v10.1a.575.575 0 0 0 .568.568h3.168v1.868a.575.575 0 0 0 .564.564h7.5a.575.575 0 0 0 .568-.568v-1.864h3.169a.575.575 0 0 0 .563-.568V3a.541.541 0 0 0-.544-.568M4.9 1.135h6.361v1.3H4.9zm6.338 13.858H4.9v-4.706h6.361v4.706zm3.76-2.436h-2.6V10.31h.993a.568.568 0 1 0 0-1.135H2.743a.568.568 0 1 0 0 1.135H3.76v2.247h-2.6V3.571h13.833v8.986"/>
        <path data-name="패스 15084" d="M10.5 5.936a.575.575 0 0 0 .568.568h1.466a.568.568 0 0 0 0-1.135h-1.466a.575.575 0 0 0-.568.568"/>
    </g>
</svg>
