<svg xmlns="http://www.w3.org/2000/svg" width="12.5" height="11.547" viewBox="0 0 12.5 11.547">
    <defs>
        <clipPath id="ck1ohvxsja">
            <path data-name="사각형 11919" style="fill:#127fb0" d="M0 0h12.5v11.547H0z"/>
        </clipPath>
    </defs>
    <g data-name="마스크 그룹 29806" style="clip-path:url(#ck1ohvxsja)">
        <path data-name="패스 15052" d="M10.625 1.05H10V.525C10 .21 9.75 0 9.375 0S8.75.21 8.75.525v.525h-5V.525C3.75.21 3.5 0 3.125 0S2.5.21 2.5.525v.525h-.625A1.713 1.713 0 0 0 0 2.624v7.348a1.713 1.713 0 0 0 1.875 1.575h8.75A1.713 1.713 0 0 0 12.5 9.972V2.624a1.748 1.748 0 0 0-1.875-1.574m-7.5 8.4c-.375 0-.625-.21-.625-.525s.25-.525.625-.525.625.21.625.525-.25.525-.625.525m0-2.1c-.375 0-.625-.21-.625-.525s.25-.525.625-.525.625.21.625.525-.25.525-.625.525m3.125 2.1c-.375 0-.625-.21-.625-.525s.25-.525.625-.525.625.21.625.525-.25.525-.625.525m0-2.1c-.375 0-.625-.21-.625-.525s.25-.525.625-.525.625.21.625.525-.25.525-.625.525m3.125 2.1c-.375 0-.625-.21-.625-.525S9 8.4 9.375 8.4s.625.21.625.525-.25.525-.625.525m0-2.1c-.375 0-.625-.21-.625-.525S9 6.3 9.375 6.3s.625.21.625.525-.25.525-.625.525M11.25 4.2h-10V2.624c0-.315.25-.525.625-.525H2.5v.525c0 .315.25.525.625.525s.625-.21.625-.525V2.1h5v.525c0 .315.25.525.625.525S10 2.939 10 2.624V2.1h.625c.375 0 .625.21.625.525z" style="fill:#127fb0"/>
    </g>
</svg>
