<svg xmlns="http://www.w3.org/2000/svg" width="26" height="26" viewBox="0 0 26 26">
    <defs>
        <clipPath id="7hrbig5i6a">
            <path data-name="사각형 11989" style="fill:#fdeae4" d="M0 0h16.235v13.196H0z"/>
        </clipPath>
    </defs>
    <rect data-name="사각형 11990" width="26" height="26" rx="2"/>
    <g data-name="그룹 29934" style="clip-path:url(#7hrbig5i6a)" transform="translate(5.242 6.01)">
        <path data-name="패스 15081" d="M16.231 1.571a6.655 6.655 0 0 1-1.911.523A3.317 3.317 0 0 0 15.78.252a6.7 6.7 0 0 1-2.11.807 3.334 3.334 0 0 0-5.676 3.036A9.454 9.454 0 0 1 1.132.617a3.327 3.327 0 0 0 1.031 4.447 3.311 3.311 0 0 1-1.51-.417v.041a3.331 3.331 0 0 0 2.67 3.266 3.315 3.315 0 0 1-1.5.057 3.335 3.335 0 0 0 3.107 2.312A6.679 6.679 0 0 1 0 11.7a9.41 9.41 0 0 0 5.1 1.5 9.408 9.408 0 0 0 9.475-9.475c0-.142 0-.284-.008-.43a6.774 6.774 0 0 0 1.664-1.72z" style="fill-rule:evenodd;fill:#fdeae4"/>
    </g>
</svg>
