<svg xmlns="http://www.w3.org/2000/svg" width="15" height="15" viewBox="0 0 15 15">
    <defs>
        <clipPath id="0njdxjmada">
            <path data-name="사각형 11974" style="fill:none" d="M0 0h15v15H0z"/>
        </clipPath>
    </defs>
    <g data-name="그룹 29865" style="clip-path:url(#0njdxjmada)">
        <path data-name="패스 15071" d="M11.989 12.177a6.2 6.2 0 0 0 1.759-3.289c-.185.278-.37.417-.509-.231-.139-1.065-1.065-.37-1.666-.741-.648.417-2.083-.833-1.805.6.37.648 2.037-.879 1.2.509-.509.926-1.9 3.055-1.759 4.12 0 1.574-1.62.324-2.176-.185-.367-1.061-.133-2.913-1.108-3.422-1.065-.05-1.991-.139-2.407-1.342a1.99 1.99 0 0 1 1.2-2.361c1.342-.833 1.852 1.018 3.1 1.018.421-.416 1.482-.555 1.582-1.018-.833-.139 1.065-.694-.093-1.018-.648.093-1.018.648-.694 1.157-1.2.278-1.25-1.759-2.407-1.111-.046 1.018-1.9.324-.648.139.417-.185-.694-.741-.093-.648.324 0 1.342-.37 1.065-.6.555-.37 1.065.833 1.62-.046.417-.648-.185-.787-.648-.463-.278-.324.509-1.018 1.2-1.3a1.812 1.812 0 0 1 .6-.139c.37.417.972.463 1.018-.046a7.387 7.387 0 0 0-2.914-.646 6.438 6.438 0 0 0-3.888 1.3c.278.139.463.324.185.509-.185.648-1.111 1.574-1.9 1.435a5.733 5.733 0 0 0-.785 2.31c.648.231.833.648.694.787a2.059 2.059 0 0 0-.648 1.157A6.449 6.449 0 0 0 2.87 12.13a6.193 6.193 0 0 0 4.536 1.944 6.521 6.521 0 0 0 4.583-1.9m.648-9.813A7.4 7.4 0 1 1 2.176 12.825 7.4 7.4 0 1 1 12.637 2.364"/>
    </g>
</svg>
